<?xml version="1.0" encoding="UTF-8"?>
<svg version="1.1" xmlns="http://www.w3.org/2000/svg" width="597" height="418">
<path d="M0 0 C5.25288543 2.55545777 8.79760326 6.52012709 12.4375 11 C14.9175602 14.07392539 14.9175602 14.07392539 18 16.5 C20.57362222 18.64468519 22.50685659 20.77780247 24.57421875 23.390625 C26.86968852 25.9816758 29.55127501 28.10677467 32.23046875 30.2890625 C34 32 34 32 35.05078125 34.1484375 C35.91145265 36.35934352 35.91145265 36.35934352 39 37 C39 37.66 39 38.32 39 39 C39.5775 39.226875 40.155 39.45375 40.75 39.6875 C43.56427613 41.32916107 45.02737733 43.43559053 47 46 C47.66 46.33 48.32 46.66 49 47 C49 47.66 49 48.32 49 49 C49.639375 49.268125 50.27875 49.53625 50.9375 49.8125 C53 51 53 51 54 54 C55.485 54.495 55.485 54.495 57 55 C57.98828125 56.734375 57.98828125 56.734375 58 59 C55.98046875 61.578125 55.98046875 61.578125 53.1875 64.25 C52.27355469 65.14203125 51.35960937 66.0340625 50.41796875 66.953125 C48 69 48 69 46 69 C45.76732422 69.55719727 45.53464844 70.11439453 45.29492188 70.68847656 C43.66430607 73.59923645 41.63760806 75.62181133 39.28125 77.984375 C37.88326172 79.38623047 37.88326172 79.38623047 36.45703125 80.81640625 C35.97186035 81.2973877 35.48668945 81.77836914 34.98681641 82.27392578 C33.49793661 83.75204848 32.02008349 85.24059911 30.54296875 86.73046875 C29.61097656 87.65988281 28.67898438 88.58929688 27.71875 89.546875 C26.86216797 90.40120117 26.00558594 91.25552734 25.12304688 92.13574219 C23 94 23 94 21 94 C20.505 95.485 20.505 95.485 20 97 C19.34 97 18.68 97 18 97 C17.690625 97.804375 17.690625 97.804375 17.375 98.625 C15.46749574 101.91978009 12.95180616 104.59363628 10 107 C9.34 107 8.68 107 8 107 C7.773125 107.5775 7.54625 108.155 7.3125 108.75 C5.66961977 111.5663661 3.60466773 113.08077114 1 115 C-2.11711069 113.73006602 -4.09088544 111.98789661 -6.4246521 109.60604858 C-8.28372294 107.71074781 -10.16901201 105.84343247 -12.0559082 103.97583008 C-16.24621411 99.82109708 -20.43042584 95.66028326 -24.61254883 91.49731445 C-26.41970373 89.70029099 -28.2286387 87.90505596 -30.03930664 86.11157227 C-32.65196447 83.52303783 -35.25822989 80.92821765 -37.86328125 78.33203125 C-38.67879959 77.52683548 -39.49431793 76.72163971 -40.33454895 75.89204407 C-41.45152412 74.77529549 -41.45152412 74.77529549 -42.59106445 73.63598633 C-43.25104935 72.98044266 -43.91103424 72.32489899 -44.59101868 71.64949036 C-46 70 -46 70 -46 68 C-46.58265625 67.75507813 -47.1653125 67.51015625 -47.765625 67.2578125 C-50.36302236 65.79564126 -51.83975831 64.15259586 -53.75 61.875 C-54.36359375 61.15054688 -54.9771875 60.42609375 -55.609375 59.6796875 C-56.06828125 59.12539062 -56.5271875 58.57109375 -57 58 C-56.34 56.68 -55.68 55.36 -55 54 C-54.34 54 -53.68 54 -53 54 C-52.731875 53.401875 -52.46375 52.80375 -52.1875 52.1875 C-51.00082594 50.00152146 -49.90400887 48.58667406 -48 47 C-47.34 47 -46.68 47 -46 47 C-45.34 45.68 -44.68 44.36 -44 43 C-43.34 43 -42.68 43 -42 43 C-41.67 42.01 -41.34 41.02 -41 40 C-40.34 40 -39.68 40 -39 40 C-38.34 38.68 -37.68 37.36 -37 36 C-36.34 36 -35.68 36 -35 36 C-34.67 35.01 -34.34 34.02 -34 33 C-33.34 33 -32.68 33 -32 33 C-31.34 31.68 -30.68 30.36 -30 29 C-29.34 29 -28.68 29 -28 29 C-27.67 28.01 -27.34 27.02 -27 26 C-26.34 26 -25.68 26 -25 26 C-24.731875 25.401875 -24.46375 24.80375 -24.1875 24.1875 C-23.00082594 22.00152146 -21.90400887 20.58667406 -20 19 C-19.34 19 -18.68 19 -18 19 C-17.731875 18.401875 -17.46375 17.80375 -17.1875 17.1875 C-16.00082594 15.00152146 -14.90400887 13.58667406 -13 12 C-12.34 12 -11.68 12 -11 12 C-10.7421875 11.41605469 -10.484375 10.83210938 -10.21875 10.23046875 C-8.90301636 7.82250751 -7.45841408 6.22527307 -5.5 4.3125 C-4.58734375 3.40951172 -4.58734375 3.40951172 -3.65625 2.48828125 C-2 1 -2 1 0 0 Z " fill="#17384E" transform="translate(290,90)"/>
<path d="M0 0 C5.25288543 2.55545777 8.79760326 6.52012709 12.4375 11 C14.9175602 14.07392539 14.9175602 14.07392539 18 16.5 C21.16478919 19.13732432 23.43500384 21.79375479 26 25 C26.99 25.99 26.99 25.99 28 27 C27.278125 27.20625 26.55625 27.4125 25.8125 27.625 C22.82487762 29.08561539 21.44831072 30.70250054 19.44140625 33.30078125 C17.81519248 35.21786253 16.04743442 36.75630281 14.125 38.375 C11.32415343 40.75624409 8.87347307 43.19301586 6.5 46 C4.31018195 48.58867893 2.09442741 50.86772535 -0.50390625 53.04296875 C-5.55152253 57.39989532 -10.24641006 62.09578357 -14.94799805 66.81762695 C-16.45572096 68.33078666 -17.96881759 69.83842885 -19.48242188 71.34570312 C-20.44563392 72.30957474 -21.4085364 73.27375584 -22.37109375 74.23828125 C-23.6693811 75.5382605 -23.6693811 75.5382605 -24.99389648 76.86450195 C-27.0367774 78.83484761 -27.0367774 78.83484761 -28 81 C-28.66 81 -29.32 81 -30 81 C-29.67 82.65 -29.34 84.3 -29 86 C-34.99959229 81.04381506 -40.80855449 75.80773381 -46 70 C-46 69.34 -46 68.68 -46 68 C-46.58265625 67.75507813 -47.1653125 67.51015625 -47.765625 67.2578125 C-50.36302236 65.79564126 -51.83975831 64.15259586 -53.75 61.875 C-54.36359375 61.15054688 -54.9771875 60.42609375 -55.609375 59.6796875 C-56.06828125 59.12539062 -56.5271875 58.57109375 -57 58 C-56.34 56.68 -55.68 55.36 -55 54 C-54.34 54 -53.68 54 -53 54 C-52.731875 53.401875 -52.46375 52.80375 -52.1875 52.1875 C-51.00082594 50.00152146 -49.90400887 48.58667406 -48 47 C-47.34 47 -46.68 47 -46 47 C-45.34 45.68 -44.68 44.36 -44 43 C-43.34 43 -42.68 43 -42 43 C-41.67 42.01 -41.34 41.02 -41 40 C-40.34 40 -39.68 40 -39 40 C-38.34 38.68 -37.68 37.36 -37 36 C-36.34 36 -35.68 36 -35 36 C-34.67 35.01 -34.34 34.02 -34 33 C-33.34 33 -32.68 33 -32 33 C-31.34 31.68 -30.68 30.36 -30 29 C-29.34 29 -28.68 29 -28 29 C-27.67 28.01 -27.34 27.02 -27 26 C-26.34 26 -25.68 26 -25 26 C-24.731875 25.401875 -24.46375 24.80375 -24.1875 24.1875 C-23.00082594 22.00152146 -21.90400887 20.58667406 -20 19 C-19.34 19 -18.68 19 -18 19 C-17.731875 18.401875 -17.46375 17.80375 -17.1875 17.1875 C-16.00082594 15.00152146 -14.90400887 13.58667406 -13 12 C-12.34 12 -11.68 12 -11 12 C-10.7421875 11.41605469 -10.484375 10.83210938 -10.21875 10.23046875 C-8.90301636 7.82250751 -7.45841408 6.22527307 -5.5 4.3125 C-4.58734375 3.40951172 -4.58734375 3.40951172 -3.65625 2.48828125 C-2 1 -2 1 0 0 Z " fill="#66BAB3" transform="translate(290,90)"/>
<path d="M0 0 C3.3402845 0.33539742 5.26646366 1.76705906 7.75 3.9375 C8.36359375 4.46214844 8.9771875 4.98679687 9.609375 5.52734375 C11 7 11 7 11 9 C11.99 9.33 12.98 9.66 14 10 C14 10.66 14 11.32 14 12 C14.5775 12.226875 15.155 12.45375 15.75 12.6875 C18.56427613 14.32916107 20.02737733 16.43559053 22 19 C22.66 19.33 23.32 19.66 24 20 C24 20.66 24 21.32 24 22 C24.639375 22.268125 25.27875 22.53625 25.9375 22.8125 C28 24 28 24 29 27 C29.99 27.33 30.98 27.66 32 28 C32.98828125 29.734375 32.98828125 29.734375 33 32 C30.98046875 34.578125 30.98046875 34.578125 28.1875 37.25 C27.27355469 38.14203125 26.35960937 39.0340625 25.41796875 39.953125 C23 42 23 42 21 42 C20.78988281 42.53109375 20.57976562 43.0621875 20.36328125 43.609375 C18.44334505 46.97613991 15.90148344 49.50648106 13.1875 52.25 C12.66607422 52.80429688 12.14464844 53.35859375 11.60742188 53.9296875 C9.1439466 56.42699327 7.66030187 57.91779733 4.11328125 58.359375 C3.41589844 58.24078125 2.71851563 58.1221875 2 58 C2 57.34 2 56.68 2 56 C1.34 56 0.68 56 0 56 C0 55.34 0 54.68 0 54 C-0.66 54 -1.32 54 -2 54 C-3.515625 52.42578125 -3.515625 52.42578125 -5.25 50.3125 C-7.41203482 47.76022238 -9.4998416 45.44928319 -12.125 43.375 C-15.26748194 40.77903666 -17.54752005 38.24592934 -20 35 C-20 34.34 -20 33.68 -20 33 C-20.639375 32.690625 -21.27875 32.38125 -21.9375 32.0625 C-24 31 -24 31 -25 30 C-25.4375 27.25 -25.4375 27.25 -25 24 C-22.375 21.5625 -22.375 21.5625 -20.703125 20.33984375 C-18.89199909 18.91503598 -17.57430223 17.41273819 -16.125 15.625 C-13.33114393 12.25184044 -10.2326775 9.4654161 -6.88671875 6.6484375 C-5.20490296 5.17902494 -3.73922027 3.65876227 -2.25 2 C-1.5075 1.34 -0.765 0.68 0 0 Z " fill="#07151F" transform="translate(315,117)"/>
<path d="M0 0 C5.94 0 11.88 0 18 0 C18.33 1.65 18.66 3.3 19 5 C16.69 5.33 14.38 5.66 12 6 C12 7.32 12 8.64 12 10 C13.3303125 10.0928125 13.3303125 10.0928125 14.6875 10.1875 C18.83812812 11.20557859 20.31716522 12.72097971 23 16 C26.03237458 21.34275522 25.40972545 26.95137276 24.25 32.75 C22.94586155 36.14075997 21.83137858 37.76921688 19 40 C13.49959683 41.83346772 7.3452326 42.07323439 2.0625 39.4375 C-2.131917 36.09908647 -3.56219007 33.0920326 -4.3125 27.79296875 C-4.67696034 21.10739938 -2.56394752 17.31176554 1.5 12.0625 C3 11 3 11 7 11 C7 9.35 7 7.7 7 6 C5.02 6 3.04 6 1 6 C-0.0625 4.125 -0.0625 4.125 -1 2 C-0.67 1.34 -0.34 0.68 0 0 Z M3 19 C1.69173631 23.05334878 1.72635655 26.74124012 2.625 30.875 C4.43662208 33.67477957 5.91171677 34.73661141 9 36 C12.07088857 36.40542699 12.07088857 36.40542699 15 35 C17.88925348 31.81517072 20 28.68000408 20 24.3125 C18.20165676 20.15383127 16.82579587 17.55053058 13 15 C8.1262474 15 6.58255728 15.73589226 3 19 Z " fill="#413F42" transform="translate(266,224)"/>
<path d="M0 0 C7 0 7 0 9.21484375 2.1875 C9.78332031 3.115625 10.35179687 4.04375 10.9375 5 C11.52402344 5.928125 12.11054688 6.85625 12.71484375 7.8125 C13.13894531 8.534375 13.56304687 9.25625 14 10 C14.49628906 9.278125 14.99257813 8.55625 15.50390625 7.8125 C16.18324219 6.884375 16.86257813 5.95625 17.5625 5 C18.55443359 3.6078125 18.55443359 3.6078125 19.56640625 2.1875 C22 0 22 0 29 0 C29 9.57 29 19.14 29 29 C27.02 29 25.04 29 23 29 C22.67 23.06 22.34 17.12 22 11 C20.68 13.31 19.36 15.62 18 18 C15.5625 19.25 15.5625 19.25 13 19 C10.1875 16.75 10.1875 16.75 8 14 C8 13.01 8 12.02 8 11 C7.34 11 6.68 11 6 11 C5.67 16.94 5.34 22.88 5 29 C3.35 29 1.7 29 0 29 C0 19.43 0 9.86 0 0 Z " fill="#515251" transform="translate(383,235)"/>
<path d="M0 0 C2.31 0 4.62 0 7 0 C9.109375 2.23046875 9.109375 2.23046875 10.75 5.1875 C11.30171875 6.15042969 11.8534375 7.11335937 12.421875 8.10546875 C12.94265625 9.06066406 13.4634375 10.01585937 14 11 C14.99 12.65 15.98 14.3 17 16 C17.33 10.72 17.66 5.44 18 0 C19.98 0 21.96 0 24 0 C24 9.57 24 19.14 24 29 C17 29 17 29 14.9375 27.1875 C12.11564688 22.54509648 9.54485204 17.80051635 7 13 C6.67 18.28 6.34 23.56 6 29 C4.02 29 2.04 29 0 29 C0 19.43 0 9.86 0 0 Z " fill="#414141" transform="translate(196,235)"/>
<path d="M0 0 C3.5677811 2.35149209 5.84221079 4.99692157 7.75 8.8125 C8.27081891 14.942138 8.59945688 20.72128284 4.75 25.8125 C-0.09610031 29.57070024 -3.84824525 30.39984694 -9.94921875 30.140625 C-12.98566466 29.70758348 -14.88327796 28.74890894 -17.25 26.8125 C-17.806875 26.420625 -18.36375 26.02875 -18.9375 25.625 C-21.90110262 21.5324059 -22.33033995 16.99751421 -22 12.125 C-21.33056876 9.16834537 -20.5020819 6.56708018 -19.25 3.8125 C-18.59 3.8125 -17.93 3.8125 -17.25 3.8125 C-16.92 2.8225 -16.59 1.8325 -16.25 0.8125 C-11.03965762 -2.1873941 -5.47158286 -1.9992322 0 0 Z M-14.25 7.8125 C-15.98422892 11.28095783 -15.71502956 15.02021673 -15.25 18.8125 C-13.81348718 21.90124323 -13.81348718 21.90124323 -11.25 23.8125 C-7.60814676 24.8530295 -5.85702852 25.01484284 -2.25 23.8125 C-2.25 23.1525 -2.25 22.4925 -2.25 21.8125 C-1.26 21.4825 -0.27 21.1525 0.75 20.8125 C1.09213921 16.42804941 1.27981288 12.18615937 0.75 7.8125 C-1.78740453 4.81265458 -1.78740453 4.81265458 -5.25 3.8125 C-9.95069146 3.8125 -10.89348653 4.72813627 -14.25 7.8125 Z " fill="#4B4B4B" transform="translate(365.25,235.1875)"/>
<path d="M0 0 C1.65 0 3.3 0 5 0 C6 1 6 1 6.09765625 3.28515625 C6.06510417 5.85677083 6.03255208 8.42838542 6 11 C9.96 11 13.92 11 18 11 C18 7.37 18 3.74 18 0 C19.98 0 21.96 0 24 0 C24 9.57 24 19.14 24 29 C22.02 29 20.04 29 18 29 C18 25.37 18 21.74 18 18 C14.04 18 10.08 18 6 18 C6 21.63 6 25.26 6 29 C4.02 29 2.04 29 0 29 C0 19.43 0 9.86 0 0 Z " fill="#2F2D2F" transform="translate(310,235)"/>
<path d="M0 0 C1.98 0 3.96 0 6 0 C6 2.97 6 5.94 6 9 C6.66 9 7.32 9 8 9 C8 8.34 8 7.68 8 7 C9.62339805 5.29115995 11.29319053 3.62553283 13 2 C13.66 1.34 14.32 0.68 15 0 C17.68839385 -0.26991906 20.29141936 -0.08737357 23 0 C21.7260411 2.03833424 20.38938077 4.03852126 19 6 C18.34 6 17.68 6 17 6 C17 6.66 17 7.32 17 8 C16.34 8 15.68 8 15 8 C13.5393715 10.64738916 13 11.89448334 13 15 C14.31321858 16.6825613 15.64613064 18.34997172 17 20 C17 20.66 17 21.32 17 22 C17.66 22 18.32 22 19 22 C19.28875 22.639375 19.5775 23.27875 19.875 23.9375 C20.82823451 26.15206079 20.82823451 26.15206079 23 27 C23 27.66 23 28.32 23 29 C17.75789474 29.43684211 17.75789474 29.43684211 15 29 C12.5 26.625 12.5 26.625 11 24 C11 23.34 11 22.68 11 22 C10.34 22 9.68 22 9 22 C8.67 20.68 8.34 19.36 8 18 C7.34 18 6.68 18 6 18 C6 21.63 6 25.26 6 29 C4.02 29 2.04 29 0 29 C0 19.43 0 9.86 0 0 Z " fill="#141414" transform="translate(134,235)"/>
<path d="M0 0 C2.31 0 4.62 0 7 0 C7.01458252 0.65597168 7.02916504 1.31194336 7.04418945 1.98779297 C7.11851414 4.95080031 7.21522369 7.91266117 7.3125 10.875 C7.33505859 11.90753906 7.35761719 12.94007813 7.38085938 14.00390625 C7.41630859 14.99003906 7.45175781 15.97617188 7.48828125 16.9921875 C7.51446533 17.90339355 7.54064941 18.81459961 7.56762695 19.75341797 C7.71031006 20.49479004 7.85299316 21.23616211 8 22 C11.4352048 24.29013653 12.985331 24.17842973 17 24 C18.20516286 19.10845663 18.33461434 14.19724878 18.5625 9.1875 C18.60568359 8.30384766 18.64886719 7.42019531 18.69335938 6.50976562 C18.79891536 4.34000377 18.89991071 2.1700209 19 0 C20.65 0 22.3 0 24 0 C24.11614929 4.0830942 24.18723457 8.16576377 24.25 12.25 C24.30027344 13.98830078 24.30027344 13.98830078 24.3515625 15.76171875 C24.36445313 16.87675781 24.37734375 17.99179688 24.390625 19.140625 C24.41157227 20.16704102 24.43251953 21.19345703 24.45410156 22.25097656 C23.87955293 25.72915805 22.73945507 26.85172305 20 29 C15.02424229 30.6585859 10.06510089 30.76318946 5.125 28.9375 C1.67798051 25.79462929 0.20832727 22.12897711 -0.23925781 17.55493164 C-0.29413655 14.88458223 -0.2624615 12.23228275 -0.1875 9.5625 C-0.17396484 8.64017578 -0.16042969 7.71785156 -0.14648438 6.76757812 C-0.11140953 4.51109617 -0.06226387 2.25586774 0 0 Z " fill="#211F20" transform="translate(423,235)"/>
<path d="M0 0 C1.98 0 3.96 0 6 0 C6 2.97 6 5.94 6 9 C6.66 9 7.32 9 8 9 C8 8.34 8 7.68 8 7 C8.66 7 9.32 7 10 7 C10.268125 6.401875 10.53625 5.80375 10.8125 5.1875 C12.85074627 1.43283582 12.85074627 1.43283582 15 0 C17.71815286 -0.2529766 20.25911949 -0.1347974 23 0 C21.7260411 2.03833424 20.38938077 4.03852126 19 6 C18.34 6 17.68 6 17 6 C17 6.66 17 7.32 17 8 C16.34 8 15.68 8 15 8 C14.690625 8.61875 14.38125 9.2375 14.0625 9.875 C13.375 11.25 12.6875 12.625 12 14 C12.7940625 14.99902344 13.588125 15.99804688 14.40625 17.02734375 C15.43762673 18.33062889 16.46886986 19.63401976 17.5 20.9375 C18.02464844 21.59685547 18.54929688 22.25621094 19.08984375 22.93554688 C23 27.88671875 23 27.88671875 23 29 C18.00391815 29.78885503 18.00391815 29.78885503 15 29 C12.13096767 26.34547476 9.95272679 23.38065826 8 20 C8 19.34 8 18.68 8 18 C7.34 18 6.68 18 6 18 C6 21.63 6 25.26 6 29 C4.02 29 2.04 29 0 29 C0 19.43 0 9.86 0 0 Z " fill="#191919" transform="translate(232,235)"/>
<path d="M0 0 C6.27 0 12.54 0 19 0 C19 1.65 19 3.3 19 5 C14.71 5 10.42 5 6 5 C6 6.98 6 8.96 6 11 C9.63 11 13.26 11 17 11 C17 12.98 17 14.96 17 17 C13.37 17 9.74 17 6 17 C6 19.31 6 21.62 6 24 C9.96 24 13.92 24 18 24 C18.33 25.65 18.66 27.3 19 29 C12.73 29 6.46 29 0 29 C0 19.43 0 9.86 0 0 Z " fill="#6C696C" transform="translate(166,235)"/>
<path d="M0 0 C4.11582568 0.06626553 6.8251485 0.95151833 10.3125 3.25 C15.03104501 8.47865798 15.58303519 11.65054619 15.546875 18.5390625 C15.26823028 21.76205305 14.37367366 23.75941516 12.3125 26.25 C11.3225 25.92 10.3325 25.59 9.3125 25.25 C8.17172343 21.82767028 8.21434883 19.16326783 8.25 15.5625 C8.25902344 14.38300781 8.26804687 13.20351562 8.27734375 11.98828125 C8.28894531 11.08464844 8.30054688 10.18101562 8.3125 9.25 C4.95684987 7.46369487 2.08278013 6.79983252 -1.6875 6.25 C-3.02487094 5.93325425 -4.36038808 5.60729936 -5.6875 5.25 C-4.57200861 0.30996669 -4.57200861 0.30996669 0 0 Z " fill="#686769" transform="translate(357.6875,233.75)"/>
<path d="M0 0 C0.33 0 0.66 0 1 0 C1 9.57 1 19.14 1 29 C-0.98 29 -2.96 29 -5 29 C-5 25.37 -5 21.74 -5 18 C-8.96 18 -12.92 18 -17 18 C-17 21.63 -17 25.26 -17 29 C-18.98 29 -20.96 29 -23 29 C-23 22.07 -23 15.14 -23 8 C-22.67 8.66 -22.34 9.32 -22 10 C-21.01 9.67 -20.02 9.34 -19 9 C-19 10.65 -19 12.3 -19 14 C-18.34 14 -17.68 14 -17 14 C-17 14.66 -17 15.32 -17 16 C-12.71 16 -8.42 16 -4 16 C-4 19.96 -4 23.92 -4 28 C-2.68 28 -1.36 28 0 28 C0 18.76 0 9.52 0 0 Z " fill="#575758" transform="translate(333,235)"/>
<path d="M0 0 C2.31 0 4.62 0 7 0 C7.625 1.8125 7.625 1.8125 8 4 C7.01 5.485 7.01 5.485 6 7 C6.31452076 8.670319 6.65270995 10.33618556 7 12 C6.9949501 14.94697456 6.77677727 17.87419211 6.5625 20.8125 C6.51029297 21.60076172 6.45808594 22.38902344 6.40429688 23.20117188 C6.27540731 25.13451529 6.13850506 27.06732164 6 29 C4.02 29 2.04 29 0 29 C0 19.43 0 9.86 0 0 Z " fill="#484A49" transform="translate(196,235)"/>
<path d="M0 0 C2.31 0 4.62 0 7 0 C7.01458252 0.65073486 7.02916504 1.30146973 7.04418945 1.97192383 C7.11864549 4.91938306 7.21531266 7.86570642 7.3125 10.8125 C7.33505859 11.83666016 7.35761719 12.86082031 7.38085938 13.91601562 C7.41630859 14.89892578 7.45175781 15.88183594 7.48828125 16.89453125 C7.51446533 17.80050049 7.54064941 18.70646973 7.56762695 19.63989258 C8.06913046 22.3773485 8.8647772 23.28237607 11 25 C8.69 25 6.38 25 4 25 C3.67 25.66 3.34 26.32 3 27 C-0.1115078 21.04648507 -0.3741794 16.21115854 -0.1875 9.5625 C-0.17396484 8.64017578 -0.16042969 7.71785156 -0.14648438 6.76757812 C-0.11140953 4.51109617 -0.06226387 2.25586774 0 0 Z " fill="#888687" transform="translate(423,235)"/>
<path d="M0 0 C2.31 0 4.62 0 7 0 C7.66 2.31 8.32 4.62 9 7 C8.01 7.33 7.02 7.66 6 8 C5.67 14.93 5.34 21.86 5 29 C3.35 29 1.7 29 0 29 C0 19.43 0 9.86 0 0 Z " fill="#292728" transform="translate(383,235)"/>
<path d="M0 0 C5.94 0 11.88 0 18 0 C18.33 1.65 18.66 3.3 19 5 C16.69 5.33 14.38 5.66 12 6 C12 7.32 12 8.64 12 10 C12.99 10.33 13.98 10.66 15 11 C12.36 11 9.72 11 7 11 C7 9.35 7 7.7 7 6 C5.02 6 3.04 6 1 6 C-0.0625 4.125 -0.0625 4.125 -1 2 C-0.67 1.34 -0.34 0.68 0 0 Z " fill="#8D898D" transform="translate(266,224)"/>
<path d="M0 0 C0.66 0.33 1.32 0.66 2 1 C1.34 2.32 0.68 3.64 0 5 C0.66 5 1.32 5 2 5 C2.33 4.01 2.66 3.02 3 2 C3.99 2.99 4.98 3.98 6 5 C2.25 8 2.25 8 0 8 C0 12.29 0 16.58 0 21 C-0.66 21 -1.32 21 -2 21 C-2.33 22.65 -2.66 24.3 -3 26 C-6.17015589 23.2433427 -6.7759498 20.98706815 -7.23828125 16.88671875 C-7.46629705 10.13025052 -5.85124782 6.15673866 -1.25 1.0625 C-0.8375 0.711875 -0.425 0.36125 0 0 Z " fill="#555355" transform="translate(269,235)"/>
<path d="M0 0 C5.94 0 11.88 0 18 0 C18 1.65 18 3.3 18 5 C13.38 5 8.76 5 4 5 C4 6.98 4 8.96 4 11 C3.34 11 2.68 11 2 11 C1.34 11.66 0.68 12.32 0 13 C0 8.71 0 4.42 0 0 Z " fill="#201D20" transform="translate(167,235)"/>
<path d="M0 0 C1.32 0 2.64 0 4 0 C4 9.24 4 18.48 4 28 C2.68 28 1.36 28 0 28 C-0.19660714 23.89621612 -0.3807276 19.79196562 -0.5625 15.6875 C-0.61857422 14.52025391 -0.67464844 13.35300781 -0.73242188 12.15039062 C-0.78076172 11.03212891 -0.82910156 9.91386719 -0.87890625 8.76171875 C-0.9260376 7.73006592 -0.97316895 6.69841309 -1.02172852 5.63549805 C-1 3 -1 3 0 0 Z " fill="#171616" transform="translate(407,236)"/>
<path d="M0 0 C0.33 0 0.66 0 1 0 C1 2.97 1 5.94 1 9 C1.66 9 2.32 9 3 9 C3 8.34 3 7.68 3 7 C3.66 7 4.32 7 5 7 C5.268125 6.401875 5.53625 5.80375 5.8125 5.1875 C7.85074627 1.43283582 7.85074627 1.43283582 10 0 C12.71815286 -0.2529766 15.25911949 -0.1347974 18 0 C16.7260411 2.03833424 15.38938077 4.03852126 14 6 C13.34 6 12.68 6 12 6 C12 6.66 12 7.32 12 8 C11.34 8 10.68 8 10 8 C9.71125 8.5775 9.4225 9.155 9.125 9.75 C8.08333333 11.83333333 7.04166667 13.91666667 6 16 C5.731875 15.195625 5.46375 14.39125 5.1875 13.5625 C4.795625 12.716875 4.40375 11.87125 4 11 C3.01 10.67 2.02 10.34 1 10 C0.67 10.66 0.34 11.32 0 12 C0 8.04 0 4.08 0 0 Z " fill="#6D6D6D" transform="translate(237,235)"/>
<path d="M0 0 C2.01822917 0.06510417 4.03645833 0.13020833 6.0546875 0.1953125 C4.7807286 2.23364674 3.44406827 4.23383376 2.0546875 6.1953125 C1.3946875 6.1953125 0.7346875 6.1953125 0.0546875 6.1953125 C0.0546875 6.8553125 0.0546875 7.5153125 0.0546875 8.1953125 C-0.6053125 8.1953125 -1.2653125 8.1953125 -1.9453125 8.1953125 C-3.15159258 10.52745398 -4.1107863 12.69173389 -4.9453125 15.1953125 C-5.6053125 15.1953125 -6.2653125 15.1953125 -6.9453125 15.1953125 C-7.0484375 14.5559375 -7.1515625 13.9165625 -7.2578125 13.2578125 C-7.4846875 12.5771875 -7.7115625 11.8965625 -7.9453125 11.1953125 C-8.9353125 10.8653125 -9.9253125 10.5353125 -10.9453125 10.1953125 C-11.2753125 10.8553125 -11.6053125 11.5153125 -11.9453125 12.1953125 C-11.9453125 9.5553125 -11.9453125 6.9153125 -11.9453125 4.1953125 C-11.6153125 4.1953125 -11.2853125 4.1953125 -10.9453125 4.1953125 C-10.9453125 5.8453125 -10.9453125 7.4953125 -10.9453125 9.1953125 C-10.2853125 9.1953125 -9.6253125 9.1953125 -8.9453125 9.1953125 C-8.9453125 8.5353125 -8.9453125 7.8753125 -8.9453125 7.1953125 C-7.32191445 5.48647245 -5.65212197 3.82084533 -3.9453125 2.1953125 C-1.9453125 0.1953125 -1.9453125 0.1953125 0 0 Z " fill="#474647" transform="translate(150.9453125,234.8046875)"/>
<path d="M0 0 C0.33 0 0.66 0 1 0 C1.33 4.95 1.66 9.9 2 15 C3.98 15.66 5.96 16.32 8 17 C7.34 17.33 6.68 17.66 6 18 C6 21.63 6 25.26 6 29 C4.02 29 2.04 29 0 29 C0 19.43 0 9.86 0 0 Z " fill="#717171" transform="translate(232,235)"/>
<path d="M0 0 C0.66 0 1.32 0 2 0 C2 2.64 2 5.28 2 8 C6.62 8 11.24 8 16 8 C16 9.32 16 10.64 16 12 C10.06 12 4.12 12 -2 12 C-2 8.7 -2 5.4 -2 2 C-1.34 1.67 -0.68 1.34 0 1 C0 0.67 0 0.34 0 0 Z " fill="#1B1B1B" transform="translate(169,252)"/>
<path d="M0 0 C4.07399962 0.05129136 6.86401168 0.97904428 10.3125 3.25 C11.3125 6.25 11.3125 6.25 10.3125 9.25 C6.93787285 8.70276317 5.23015 8.1951 2.3125 6.25 C0.25540404 6.00944532 0.25540404 6.00944532 -1.875 6.125 C-3.133125 6.16625 -4.39125 6.2075 -5.6875 6.25 C-4.62194787 0.3133524 -4.62194787 0.3133524 0 0 Z " fill="#4C4B4D" transform="translate(357.6875,233.75)"/>
<path d="M0 0 C2.86724686 0.57344937 3.8614515 0.8614515 6 3 C8.93453261 2.63318342 9.86437246 2.13562754 12 0 C14.125 0.375 14.125 0.375 16 1 C15.68087403 3.97850904 14.93832742 5.06711428 12.875 7.3125 C9.15078417 9.49845277 7.11378579 8.9679496 3 8 C3 7.34 3 6.68 3 6 C1.68 5.34 0.36 4.68 -1 4 C-0.67 2.68 -0.34 1.36 0 0 Z " fill="#6B696B" transform="translate(350,224)"/>
<path d="M0 0 C1.32 0 2.64 0 4 0 C4.1964031 3.29119935 4.38060745 6.58296934 4.5625 9.875 C4.61857422 10.81214844 4.67464844 11.74929687 4.73242188 12.71484375 C4.78076172 13.61074219 4.82910156 14.50664062 4.87890625 15.4296875 C4.94960327 16.67081299 4.94960327 16.67081299 5.02172852 17.93701172 C5 20 5 20 4 22 C3.01 22 2.02 22 1 22 C0.05862745 19.17588235 -0.11725382 17.47081968 -0.09765625 14.55078125 C-0.09443359 13.70322266 -0.09121094 12.85566406 -0.08789062 11.98242188 C-0.07951172 11.10134766 -0.07113281 10.22027344 -0.0625 9.3125 C-0.05798828 8.41982422 -0.05347656 7.52714844 -0.04882812 6.60742188 C-0.03704983 4.40488013 -0.02060164 2.20247401 0 0 Z " fill="#151213" transform="translate(424,236)"/>
<path d="M0 0 C0.33 0.66 0.66 1.32 1 2 C4.11431722 3.92859094 7.16415154 4.52735859 10.75 5.125 C11.73484375 5.29257812 12.7196875 5.46015625 13.734375 5.6328125 C14.85585938 5.81457031 14.85585938 5.81457031 16 6 C15.01 6.495 15.01 6.495 14 7 C14 7.99 14 8.98 14 10 C12.06280622 10.05406122 10.12518079 10.09282025 8.1875 10.125 C7.10855469 10.14820313 6.02960938 10.17140625 4.91796875 10.1953125 C2 10 2 10 -1 8 C-1.25660094 4.92078868 -1.39431504 2.78863007 0 0 Z " fill="#333031" transform="translate(267,254)"/>
<path d="M0 0 C0.66 1.32 1.32 2.64 2 4 C2.99 4 3.98 4 5 4 C4.52153935 8.30614589 3.34073619 10.24880549 0 13 C-3.01490557 14.00496852 -5.04181692 14.10335303 -8.1875 14.0625 C-9.53908203 14.04896484 -9.53908203 14.04896484 -10.91796875 14.03515625 C-11.60503906 14.02355469 -12.29210937 14.01195312 -13 14 C-13 13.67 -13 13.34 -13 13 C-10.03 13 -7.06 13 -4 13 C-4 12.01 -4 11.02 -4 10 C-4.66 9.34 -5.32 8.68 -6 8 C-5.38125 7.4225 -4.7625 6.845 -4.125 6.25 C-2.18652947 4.19750179 -1.09985751 2.56633418 0 0 Z " fill="#474547" transform="translate(285,251)"/>
<path d="M0 0 C0.99 0.66 1.98 1.32 3 2 C3 2.66 3 3.32 3 4 C3.66 4 4.32 4 5 4 C5.28875 4.639375 5.5775 5.27875 5.875 5.9375 C6.82823451 8.15206079 6.82823451 8.15206079 9 9 C9 9.66 9 10.32 9 11 C3.75789474 11.43684211 3.75789474 11.43684211 1 11 C-1.5 8.625 -1.5 8.625 -3 6 C-3 5.34 -3 4.68 -3 4 C-3.66 4 -4.32 4 -5 4 C-5 3.01 -5 2.02 -5 1 C-2.525 1.99 -2.525 1.99 0 3 C0 2.01 0 1.02 0 0 Z " fill="#474647" transform="translate(148,253)"/>
<path d="M0 0 C1.65 0 3.3 0 5 0 C5 4.29 5 8.58 5 13 C6.98 13 8.96 13 11 13 C11 13.33 11 13.66 11 14 C13.31 14.33 15.62 14.66 18 15 C18 15.33 18 15.66 18 16 C14.04 16 10.08 16 6 16 C6 15.34 6 14.68 6 14 C5.34 14 4.68 14 4 14 C3.67 12.68 3.34 11.36 3 10 C2.34 10 1.68 10 1 10 C-0.60725635 6.78548731 -0.05748185 3.56387464 0 0 Z " fill="#0E0C0F" transform="translate(310,235)"/>
<path d="M0 0 C3.63559661 3.43361902 6.36113346 6.7973607 9 11 C3.89119171 11.70466321 3.89119171 11.70466321 1 11 C-1.49126669 8.62339412 -3.25736814 5.95719346 -5 3 C-3.68 3 -2.36 3 -1 3 C-0.67 2.01 -0.34 1.02 0 0 Z " fill="#5B595A" transform="translate(246,253)"/>
<path d="M0 0 C2.5999298 2.51027705 4.99091227 4.9863684 7 8 C7 8.66 7 9.32 7 10 C6.34 10 5.68 10 5 10 C4.67 11.65 4.34 13.3 4 15 C2 13.1875 2 13.1875 0 11 C0 10.01 0 9.02 0 8 C-0.66 8 -1.32 8 -2 8 C-2.33 7.01 -2.66 6.02 -3 5 C-1.68 4.67 -0.36 4.34 1 4 C0.67 2.68 0.34 1.36 0 0 Z " fill="#504F52" transform="translate(391,238)"/>
<path d="M0 0 C1.32 0 2.64 0 4 0 C4.103125 0.78375 4.20625 1.5675 4.3125 2.375 C4.77595022 5.33045181 4.77595022 5.33045181 8 7 C7.67 8.65 7.34 10.3 7 12 C4.525 11.01 4.525 11.01 2 10 C2 9.01 2 8.02 2 7 C0.68 6.67 -0.64 6.34 -2 6 C-1.34 5.67 -0.68 5.34 0 5 C0 3.35 0 1.7 0 0 Z " fill="#151515" transform="translate(238,245)"/>
<path d="M0 0 C0 9.57 0 19.14 0 29 C-0.33 29 -0.66 29 -1 29 C-1 19.76 -1 10.52 -1 1 C-2.32 1 -3.64 1 -5 1 C-4.67 1.99 -4.34 2.98 -4 4 C-4.721875 4.226875 -5.44375 4.45375 -6.1875 4.6875 C-9.53209313 6.24831013 -11.51603959 8.3031287 -14 11 C-12.81395036 8.30443264 -11.35681211 5.7544272 -9.8125 3.25 C-9.44769531 2.63640625 -9.08289063 2.0228125 -8.70703125 1.390625 C-7 0 -7 0 0 0 Z " fill="#8C898A" transform="translate(412,235)"/>
<path d="M0 0 C0.33 0.99 0.66 1.98 1 3 C1.99 2.67 2.98 2.34 4 2 C3.67 1.34 3.34 0.68 3 0 C7.29 0 11.58 0 16 0 C15.01 0.495 15.01 0.495 14 1 C14 1.66 14 2.32 14 3 C12.68 3.33 11.36 3.66 10 4 C10 5.32 10 6.64 10 8 C9.01 8 8.02 8 7 8 C7 6.68 7 5.36 7 4 C4.69 4 2.38 4 0 4 C0 2.68 0 1.36 0 0 Z " fill="#141215" transform="translate(267,225)"/>
<path d="M0 0 C1.98 0 3.96 0 6 0 C5.67 0.99 5.34 1.98 5 3 C5 2.34 5 1.68 5 1 C3.68 1 2.36 1 1 1 C1.33 9.25 1.66 17.5 2 26 C2.66 26.33 3.32 26.66 4 27 C4.495 22.545 4.495 22.545 5 18 C5.33 18 5.66 18 6 18 C6 21.63 6 25.26 6 29 C4.02 29 2.04 29 0 29 C0 19.43 0 9.86 0 0 Z " fill="#7D7D7D" transform="translate(134,235)"/>
<path d="M0 0 C0.33 0 0.66 0 1 0 C1 4.29 1 8.58 1 13 C-0.65 13 -2.3 13 -4 13 C-4 9.04 -4 5.08 -4 1 C-3.01 1.33 -2.02 1.66 -1 2 C-0.67 1.34 -0.34 0.68 0 0 Z " fill="#151314" transform="translate(314,251)"/>
<path d="M0 0 C0.99 0 1.98 0 3 0 C3 0.66 3 1.32 3 2 C3.66 2.33 4.32 2.66 5 3 C5.125 10.75 5.125 10.75 4 13 C3.01 13 2.02 13 1 13 C0.63631108 11.39796533 0.28438048 9.79325797 -0.0625 8.1875 C-0.25972656 7.29417969 -0.45695312 6.40085938 -0.66015625 5.48046875 C-1 3 -1 3 0 0 Z " fill="#1E1C1F" transform="translate(286,242)"/>
<path d="M0 0 C2.475 0.495 2.475 0.495 5 1 C5 4.3 5 7.6 5 11 C4.01 11.33 3.02 11.66 2 12 C1.34 11.67 0.68 11.34 0 11 C0 7.37 0 3.74 0 0 Z " fill="#151517" transform="translate(367,244)"/>
<path d="M0 0 C0.66 0.33 1.32 0.66 2 1 C1.34 2.32 0.68 3.64 0 5 C0.66 5 1.32 5 2 5 C2.33 4.01 2.66 3.02 3 2 C3.99 2.99 4.98 3.98 6 5 C2.25 8 2.25 8 0 8 C-0.33 9.32 -0.66 10.64 -1 12 C-1.66 11.01 -2.32 10.02 -3 9 C-3.66 8.67 -4.32 8.34 -5 8 C-5.33 8.66 -5.66 9.32 -6 10 C-5.49477778 5.62140745 -2.82172778 3.18348776 0 0 Z " fill="#575557" transform="translate(269,235)"/>
<path d="M0 0 C3.49084212 1.08336479 4.05521194 2.1047123 5.8125 5.4375 C7 9 7 9 6 12 C4 12 4 12 1.9375 10.3125 C-0.21338169 7.74531863 -0.74566417 6.30636582 -1 3 C-0.67 2.01 -0.34 1.02 0 0 Z " fill="#282727" transform="translate(202,238)"/>
<path d="M0 0 C0 4.35035144 -2.18756621 6.79779957 -5 10 C-6.64605826 11.03357147 -8.30963442 12.04060332 -10 13 C-12.09543806 15.99348295 -12.1999733 18.40048059 -12 22 C-12.66 21.67 -13.32 21.34 -14 21 C-14.625 17.9375 -14.625 17.9375 -15 15 C-14.34 15 -13.68 15 -13 15 C-12.78601563 14.45859375 -12.57203125 13.9171875 -12.3515625 13.359375 C-10.51922057 10.1607203 -8.00203394 7.79035516 -5.375 5.25 C-4.859375 4.74339844 -4.34375 4.23679688 -3.8125 3.71484375 C-2.54616661 2.47196098 -1.2736856 1.23534724 0 0 Z " fill="#184D5A" transform="translate(275,156)"/>
<path d="M0 0 C0.33 0.99 0.66 1.98 1 3 C1.66 3.66 2.32 4.32 3 5 C-2.79799884 9.0333905 -7.01370081 9.50604984 -14 9 C-14 8.67 -14 8.34 -14 8 C-11.03 8 -8.06 8 -5 8 C-4.67 7.01 -4.34 6.02 -4 5 C-4.99 4.34 -5.98 3.68 -7 3 C-6.01 3 -5.02 3 -4 3 C-4 2.34 -4 1.68 -4 1 C-2 0 -2 0 0 0 Z " fill="#514F50" transform="translate(367,256)"/>
<path d="M0 0 C0.99 0.33 1.98 0.66 3 1 C4.89470816 1.0685495 6.7916834 1.08480372 8.6875 1.0625 C9.68136719 1.05347656 10.67523438 1.04445313 11.69921875 1.03515625 C12.45847656 1.02355469 13.21773438 1.01195312 14 1 C13.34 2.32 12.68 3.64 12 5 C10.37536158 5.05395478 8.75021459 5.09277195 7.125 5.125 C6.22007812 5.14820313 5.31515625 5.17140625 4.3828125 5.1953125 C2 5 2 5 0 3 C0 2.01 0 1.02 0 0 Z " fill="#161314" transform="translate(350,259)"/>
<path d="M0 0 C0.66 0.33 1.32 0.66 2 1 C2 1.99 2 2.98 2 4 C2.66 4.66 3.32 5.32 4 6 C1.03 8.475 1.03 8.475 -2 11 C-2 10.34 -2 9.68 -2 9 C-2.99 9 -3.98 9 -5 9 C-4.37315423 6.07471973 -3.51695295 3.58774327 -2 1 C-1.34 0.67 -0.68 0.34 0 0 Z " fill="#262627" transform="translate(351,235)"/>
<path d="M0 0 C1.51400391 0.01740234 1.51400391 0.01740234 3.05859375 0.03515625 C4.07050781 0.04417969 5.08242188 0.05320313 6.125 0.0625 C7.29869141 0.07990234 7.29869141 0.07990234 8.49609375 0.09765625 C8.16609375 1.41765625 7.83609375 2.73765625 7.49609375 4.09765625 C1.34375 4.1953125 1.34375 4.1953125 -0.50390625 4.09765625 C-0.83390625 3.76765625 -1.16390625 3.43765625 -1.50390625 3.09765625 C-1.83390625 3.75765625 -2.16390625 4.41765625 -2.50390625 5.09765625 C-3.16390625 5.09765625 -3.82390625 5.09765625 -4.50390625 5.09765625 C-3.38261259 0.13192717 -3.38261259 0.13192717 0 0 Z " fill="#100E11" transform="translate(273.50390625,234.90234375)"/>
<path d="M0 0 C0.33 0 0.66 0 1 0 C1 1.65 1 3.3 1 5 C1.99 5.33 2.98 5.66 4 6 C6.1875 7.9375 6.1875 7.9375 8 10 C8 10.66 8 11.32 8 12 C8.99 12.33 9.98 12.66 11 13 C10.67 14.32 10.34 15.64 10 17 C9.67 16.01 9.34 15.02 9 14 C7.67124039 13.32426328 6.33715906 12.65895968 5 12 C3.078125 10.0546875 3.078125 10.0546875 1.25 7.875 C0.63640625 7.15054688 0.0228125 6.42609375 -0.609375 5.6796875 C-1.06828125 5.12539062 -1.5271875 4.57109375 -2 4 C-1.34 2.68 -0.68 1.36 0 0 Z " fill="#84BFB6" transform="translate(235,144)"/>
<path d="M0 0 C7.65217391 2.43478261 7.65217391 2.43478261 10 4 C10.625 6.0625 10.625 6.0625 11 8 C11.66 8.33 12.32 8.66 13 9 C13 9.99 13 10.98 13 12 C7.27891565 9.66918786 3.68086822 4.77149584 0 0 Z " fill="#445866" transform="translate(278,193)"/>
<path d="M0 0 C0.33 0 0.66 0 1 0 C1 5.28 1 10.56 1 16 C-0.32 16 -1.64 16 -3 16 C-3 12.7 -3 9.4 -3 6 C-2.34 6 -1.68 6 -1 6 C-0.67 4.02 -0.34 2.04 0 0 Z " fill="#110E10" transform="translate(332,247)"/>
<path d="M0 0 C0 3.63 0 7.26 0 11 C-1.32 11 -2.64 11 -4 11 C-4 7.7 -4 4.4 -4 1 C-2 0 -2 0 0 0 Z " fill="#161616" transform="translate(237,253)"/>
<path d="M0 0 C0.66 0 1.32 0 2 0 C2 0.66 2 1.32 2 2 C3.32 2.33 4.64 2.66 6 3 C3.36 5.64 0.72 8.28 -2 11 C-3.13643966 7.59068103 -2.86747764 6.99664544 -1.5625 3.8125 C-1.13130859 2.73935547 -1.13130859 2.73935547 -0.69140625 1.64453125 C-0.46324219 1.10183594 -0.23507812 0.55914062 0 0 Z " fill="#3F5165" transform="translate(315,173)"/>
<path d="M0 0 C0 1.32 0 2.64 0 4 C-3.63 4 -7.26 4 -11 4 C-10.67 3.01 -10.34 2.02 -10 1 C-6.52674819 -0.1577506 -3.63932552 -0.06866652 0 0 Z " fill="#111011" transform="translate(182,247)"/>
<path d="M0 0 C6.75 0.75 6.75 0.75 9 3 C8.01 3 7.02 3 6 3 C6 3.66 6 4.32 6 5 C8.64 5 11.28 5 14 5 C14 5.33 14 5.66 14 6 C12.58376784 6.05447047 11.16691809 6.09300508 9.75 6.125 C8.96109375 6.14820313 8.1721875 6.17140625 7.359375 6.1953125 C4.75289611 5.97954438 3.19232417 5.40935125 1 4 C0.25 1.875 0.25 1.875 0 0 Z " fill="#413D3E" transform="translate(426,259)"/>
<path d="M0 0 C0.68359375 1.765625 0.68359375 1.765625 1 4 C-0.21484375 5.921875 -0.21484375 5.921875 -1.9375 7.75 C-2.50339844 8.36359375 -3.06929688 8.9771875 -3.65234375 9.609375 C-4.31943359 10.29773438 -4.31943359 10.29773438 -5 11 C-5.99 10.67 -6.98 10.34 -8 10 C-6.71480435 7.13302508 -5.42870746 5.02392288 -3 3 C-2.34 3 -1.68 3 -1 3 C-0.67 2.01 -0.34 1.02 0 0 Z " fill="#89C8C1" transform="translate(280,99)"/>
<path d="M0 0 C2.31 1.98 4.62 3.96 7 6 C6.01 6.66 5.02 7.32 4 8 C3.34 7.67 2.68 7.34 2 7 C2.33 8.32 2.66 9.64 3 11 C1.68 10.34 0.36 9.68 -1 9 C-1 5.88772805 -0.54372951 3.05847848 0 0 Z " fill="#5E5C5D" transform="translate(349,253)"/>
<path d="M0 0 C0.66 1.32 1.32 2.64 2 4 C2.66 3.34 3.32 2.68 4 2 C5.60080151 6.00200378 4.29279692 9.04556236 3 13 C2.34 13 1.68 13 1 13 C0.1276588 10.00519083 -0.10829766 7.36424089 -0.0625 4.25 C-0.05347656 3.45078125 -0.04445313 2.6515625 -0.03515625 1.828125 C-0.02355469 1.22484375 -0.01195312 0.6215625 0 0 Z " fill="#585658" transform="translate(262,245)"/>
<path d="M0 0 C2.4375 0.625 2.4375 0.625 5 2 C5.8125 5.125 5.8125 5.125 6 8 C3.03 7.505 3.03 7.505 0 7 C0 6.34 0 5.68 0 5 C-0.66 4.67 -1.32 4.34 -2 4 C-1.34 2.68 -0.68 1.36 0 0 Z " fill="#252526" transform="translate(142,248)"/>
<path d="M0 0 C2.64 0 5.28 0 8 0 C6.71937515 1.7074998 5.38232443 3.37373596 4 5 C3.34 5 2.68 5 2 5 C1.34 5.66 0.68 6.32 0 7 C-0.66 6.01 -1.32 5.02 -2 4 C-1.34 2.68 -0.68 1.36 0 0 Z " fill="#3C3A3A" transform="translate(247,235)"/>
<path d="M0 0 C3.63 0 7.26 0 11 0 C10.01 0.495 10.01 0.495 9 1 C9 1.99 9 2.98 9 4 C6.03 4 3.06 4 0 4 C0 2.68 0 1.36 0 0 Z " fill="#110F10" transform="translate(272,260)"/>
<path d="M0 0 C2.97 0.33 5.94 0.66 9 1 C9 1.99 9 2.98 9 4 C5.7 4.33 2.4 4.66 -1 5 C-0.67 3.35 -0.34 1.7 0 0 Z " fill="#151417" transform="translate(353,235)"/>
<path d="M0 0 C2.1875 0.3125 2.1875 0.3125 4 1 C3.43628586 4.26954202 2.50037734 5.82575883 0 8 C-0.66 7.67 -1.32 7.34 -2 7 C-1.67 6.01 -1.34 5.02 -1 4 C-1.66 3.67 -2.32 3.34 -3 3 C-1.75 1.4375 -1.75 1.4375 0 0 Z " fill="#736F72" transform="translate(362,224)"/>
<path d="M0 0 C0.33 0 0.66 0 1 0 C1 6.27 1 12.54 1 19 C-0.32 18.67 -1.64 18.34 -3 18 C-2.68289063 17.31550781 -2.36578125 16.63101562 -2.0390625 15.92578125 C-0.85883043 12.60249621 -0.58802755 9.70245465 -0.375 6.1875 C-0.30023438 5.02605469 -0.22546875 3.86460937 -0.1484375 2.66796875 C-0.09945313 1.78753906 -0.05046875 0.90710938 0 0 Z " fill="#1E1E1E" transform="translate(387,245)"/>
<path d="M0 0 C1.65 0 3.3 0 5 0 C5 0.66 5 1.32 5 2 C5.99 2.33 6.98 2.66 8 3 C8.33 4.98 8.66 6.96 9 9 C7.87105124 8.06725891 6.74699124 7.12859878 5.625 6.1875 C4.99851562 5.66542969 4.37203125 5.14335937 3.7265625 4.60546875 C2 3 2 3 0 0 Z " fill="#526874" transform="translate(263,178)"/>
<path d="M0 0 C-0.33 1.65 -0.66 3.3 -1 5 C-1.66 5 -2.32 5 -3 5 C-3.268125 5.61875 -3.53625 6.2375 -3.8125 6.875 C-5 9 -5 9 -8 11 C-8 9.68 -8 8.36 -8 7 C-7.01 7 -6.02 7 -5 7 C-5.33 6.01 -5.66 5.02 -6 4 C-2.25 0 -2.25 0 0 0 Z " fill="#323842" transform="translate(339,154)"/>
<path d="M0 0 C2.99324263 1.0975223 3.84610901 1.67682892 5.25 4.625 C5.4975 5.40875 5.745 6.1925 6 7 C4.35 7 2.7 7 1 7 C-0.0625 4.625 -0.0625 4.625 -1 2 C-0.67 1.34 -0.34 0.68 0 0 Z " fill="#383637" transform="translate(247,256)"/>
<path d="M0 0 C3.01327566 1.50663783 3.61056618 4.03166411 5 7 C3.68 7 2.36 7 1 7 C0.01 8.485 0.01 8.485 -1 10 C-2.32 7.36 -3.64 4.72 -5 2 C-4.01 2.33 -3.02 2.66 -2 3 C-2 3.66 -2 4.32 -2 5 C-1.34 4.67 -0.68 4.34 0 4 C0 2.68 0 1.36 0 0 Z " fill="#616060" transform="translate(208,245)"/>
<path d="M0 0 C4 0 4 0 5.75 1.375 C7 3 7 3 7 5 C4.69 5 2.38 5 0 5 C-0.5625 3.0625 -0.5625 3.0625 -1 1 C-0.67 0.67 -0.34 0.34 0 0 Z " fill="#393637" transform="translate(150,259)"/>
<path d="M0 0 C0.33 0 0.66 0 1 0 C1 1.65 1 3.3 1 5 C1.66 5 2.32 5 3 5 C3.33 4.34 3.66 3.68 4 3 C4 3.66 4 4.32 4 5 C5.32 5 6.64 5 8 5 C7.67 6.98 7.34 8.96 7 11 C6.34 11 5.68 11 5 11 C4.896875 10.360625 4.79375 9.72125 4.6875 9.0625 C4.460625 8.381875 4.23375 7.70125 4 7 C3.01 6.67 2.02 6.34 1 6 C0.67 6.66 0.34 7.32 0 8 C0 5.36 0 2.72 0 0 Z " fill="#7B7B7C" transform="translate(139,239)"/>
<path d="M0 0 C0.33 0 0.66 0 1 0 C1 2.97 1 5.94 1 9 C2.65 9 4.3 9 6 9 C5.34 10.65 4.68 12.3 4 14 C3.01 13.67 2.02 13.34 1 13 C-0.00496852 9.98509443 -0.10335303 7.95818308 -0.0625 4.8125 C-0.05347656 3.91144531 -0.04445313 3.01039063 -0.03515625 2.08203125 C-0.02355469 1.39496094 -0.01195312 0.70789063 0 0 Z " fill="#615E5F" transform="translate(366,246)"/>
<path d="M0 0 C1.98 0.66 3.96 1.32 6 2 C5.01 2.495 5.01 2.495 4 3 C4 6.63 4 10.26 4 14 C3.67 14 3.34 14 3 14 C3 10.37 3 6.74 3 3 C2.67 3.66 2.34 4.32 2 5 C1.01 4.67 0.02 4.34 -1 4 C-0.67 2.68 -0.34 1.36 0 0 Z " fill="#656565" transform="translate(234,250)"/>
<path d="M0 0 C0.99 0.33 1.98 0.66 3 1 C1.83242263 4.32310483 0.85051143 6.83361132 -2 9 C-2.99 9 -3.98 9 -5 9 C-5 8.34 -5 7.68 -5 7 C-4 6 -3 5 -2 4 C-0.82425289 1.90010348 -0.82425289 1.90010348 0 0 Z " fill="#4E4C4D" transform="translate(401,245)"/>
<path d="M0 0 C4.62 0 9.24 0 14 0 C14 0.33 14 0.66 14 1 C9.545 1.495 9.545 1.495 5 2 C5.33 2.66 5.66 3.32 6 4 C4.02 4.33 2.04 4.66 0 5 C-0.33 4.01 -0.66 3.02 -1 2 C-0.67 1.34 -0.34 0.68 0 0 Z " fill="#8F8C8F" transform="translate(266,224)"/>
<path d="M0 0 C0.66 0 1.32 0 2 0 C2 2.64 2 5.28 2 8 C1.01 8 0.02 8 -1 8 C-1.33 8.99 -1.66 9.98 -2 11 C-2 8.03 -2 5.06 -2 2 C-1.34 1.67 -0.68 1.34 0 1 C0 0.67 0 0.34 0 0 Z " fill="#120E10" transform="translate(169,252)"/>
<path d="M0 0 C0.33 1.32 0.66 2.64 1 4 C1.66 4 2.32 4 3 4 C3 5.32 3 6.64 3 8 C3.66 8 4.32 8 5 8 C5 8.66 5 9.32 5 10 C3.35 10.33 1.7 10.66 0 11 C0 7.37 0 3.74 0 0 Z " fill="#131313" transform="translate(233,240)"/>
<path d="M0 0 C1.98 0.495 1.98 0.495 4 1 C4.6875 2.8125 4.6875 2.8125 5 5 C3.5625 6.75 3.5625 6.75 2 8 C1.67 7.01 1.34 6.02 1 5 C0.34 4.67 -0.32 4.34 -1 4 C-0.67 2.68 -0.34 1.36 0 0 Z " fill="#151415" transform="translate(209,251)"/>
<path d="M0 0 C1.98 0 3.96 0 6 0 C4 3 4 3 1 4 C-0.72795352 4.06802967 -2.45835365 4.08495645 -4.1875 4.0625 C-5.53908203 4.04896484 -5.53908203 4.04896484 -6.91796875 4.03515625 C-7.60503906 4.02355469 -8.29210937 4.01195312 -9 4 C-9 3.67 -9 3.34 -9 3 C-6.03 3 -3.06 3 0 3 C0 2.01 0 1.02 0 0 Z " fill="#5D5D5D" transform="translate(281,261)"/>
<path d="M0 0 C0.99 0.66 1.98 1.32 3 2 C3 3.32 3 4.64 3 6 C3.66 6.33 4.32 6.66 5 7 C4.67 7.66 4.34 8.32 4 9 C2 8 2 8 0 6 C-2.06874034 5.3574765 -2.06874034 5.3574765 -4 5 C-3.01 5 -2.02 5 -1 5 C-0.67 3.35 -0.34 1.7 0 0 Z " fill="#5D5B5C" transform="translate(441,254)"/>
<path d="M0 0 C0.99 0.33 1.98 0.66 3 1 C2.67 2.65 2.34 4.3 2 6 C-0.475 5.01 -0.475 5.01 -3 4 C-3 3.34 -3 2.68 -3 2 C-2.01 1.34 -1.02 0.68 0 0 Z " fill="#272727" transform="translate(243,251)"/>
<path d="M0 0 C2.475 0.99 2.475 0.99 5 2 C3.768606 4.46278801 2.21935077 5.42497687 0 7 C-0.99 6.01 -1.98 5.02 -3 4 C-2.34 3.67 -1.68 3.34 -1 3 C-0.67 2.01 -0.34 1.02 0 0 Z " fill="#5C5759" transform="translate(282,235)"/>
<path d="M0 0 C-0.33 1.65 -0.66 3.3 -1 5 C-2.65 5 -4.3 5 -6 5 C-6.33 4.01 -6.66 3.02 -7 2 C-2.25 0 -2.25 0 0 0 Z " fill="#292629" transform="translate(361,228)"/>
<path d="M0 0 C1.32 0 2.64 0 4 0 C3.75 2.375 3.75 2.375 3 5 C0.9375 6.3125 0.9375 6.3125 -1 7 C-0.67 4.69 -0.34 2.38 0 0 Z " fill="#151115" transform="translate(264,243)"/>
<path d="M0 0 C1.9375 0.6875 1.9375 0.6875 4 2 C4.75 4.625 4.75 4.625 5 7 C4.01 7 3.02 7 2 7 C2 6.01 2 5.02 2 4 C1.34 4 0.68 4 0 4 C-0.33 3.01 -0.66 2.02 -1 1 C-0.67 0.67 -0.34 0.34 0 0 Z " fill="#424243" transform="translate(389,242)"/>
<path d="M0 0 C2.0625 0.4375 2.0625 0.4375 4 1 C3.67 2.65 3.34 4.3 3 6 C1.68 5.34 0.36 4.68 -1 4 C-1 1 -1 1 0 0 Z " fill="#1B1A1D" transform="translate(365,237)"/>
<path d="M0 0 C0.33 0 0.66 0 1 0 C1 3.63 1 7.26 1 11 C-0.65 11 -2.3 11 -4 11 C-3.67 10.01 -3.34 9.02 -3 8 C-2.34 8.33 -1.68 8.66 -1 9 C-0.67 6.03 -0.34 3.06 0 0 Z " fill="#4F4F4F" transform="translate(139,253)"/>
<path d="M0 0 C0.66 0 1.32 0 2 0 C0.52307692 5.66153846 0.52307692 5.66153846 -2.125 7.375 C-3.053125 7.684375 -3.053125 7.684375 -4 8 C-3.67 6.35 -3.34 4.7 -3 3 C-2.34 3 -1.68 3 -1 3 C-0.67 2.01 -0.34 1.02 0 0 Z " fill="#141214" transform="translate(399,245)"/>
<path d="M0 0 C0 3 0 3 -1 4.875 C-2.18695221 7.39727345 -2.15304535 9.24518373 -2 12 C-2.66 11.67 -3.32 11.34 -4 11 C-4.625 7.9375 -4.625 7.9375 -5 5 C-4.34 5 -3.68 5 -3 5 C-2.5359375 4.0409375 -2.5359375 4.0409375 -2.0625 3.0625 C-1 1 -1 1 0 0 Z " fill="#2F5863" transform="translate(265,166)"/>
<path d="M0 0 C0.66 0.33 1.32 0.66 2 1 C1.01 2.485 1.01 2.485 0 4 C-0.66 4 -1.32 4 -2 4 C-1.67 5.65 -1.34 7.3 -1 9 C-4 7 -4 7 -4.6875 4.875 C-4.790625 4.25625 -4.89375 3.6375 -5 3 C-2.625 1.4375 -2.625 1.4375 0 0 Z " fill="#6DA4A8" transform="translate(262,167)"/>
<path d="M0 0 C2.475 0.99 2.475 0.99 5 2 C4.01 2.66 3.02 3.32 2 4 C0.32576317 5.32381517 -1.34211215 6.65576661 -3 8 C-2.37240135 5.07120629 -1.41377341 2.63904371 0 0 Z " fill="#6A9F9C" transform="translate(313,114)"/>
<path d="M0 0 C2.475 0.99 2.475 0.99 5 2 C5 3.65 5 5.3 5 7 C3.29115995 5.37660195 1.62553283 3.70680947 0 2 C0 1.34 0 0.68 0 0 Z M6 0 C6.66 0 7.32 0 8 0 C8 0.66 8 1.32 8 2 C7.01 1.67 6.02 1.34 5 1 C5.33 0.67 5.66 0.34 6 0 Z " fill="#6B696A" transform="translate(145,257)"/>
<path d="M0 0 C1 3 1 3 0 6 C-2.47739354 6.90837763 -4.33579484 7 -7 7 C-4.69 4.69 -2.38 2.38 0 0 Z " fill="#1D4E5A" transform="translate(287,144)"/>
<path d="M0 0 C0.66 0.33 1.32 0.66 2 1 C1.60196439 3.88575819 1.20990931 4.82189513 -1.0625 6.75 C-1.701875 7.1625 -2.34125 7.575 -3 8 C-3.66 7.67 -4.32 7.34 -5 7 C-4.67 6.01 -4.34 5.02 -4 4 C-3.34 4 -2.68 4 -2 4 C-1.34 2.68 -0.68 1.36 0 0 Z " fill="#8BC8C1" transform="translate(253,126)"/>
<path d="M0 0 C0.66 0.99 1.32 1.98 2 3 C1.01 3.66 0.02 4.32 -1 5 C-1.33 5.66 -1.66 6.32 -2 7 C-4.5625 7.625 -4.5625 7.625 -7 8 C-6.02133662 6.85373678 -5.04205413 5.70800212 -4.0625 4.5625 C-3.51722656 3.92441406 -2.97195313 3.28632812 -2.41015625 2.62890625 C-1.63204305 1.73008851 -0.84063472 0.84063472 0 0 Z " fill="#A0D3CD" transform="translate(288,91)"/>
<path d="M0 0 C2.64 0.33 5.28 0.66 8 1 C4.25 2.125 4.25 2.125 2 1 C2 2.32 2 3.64 2 5 C1.01 5 0.02 5 -1 5 C-0.67 3.35 -0.34 1.7 0 0 Z " fill="#464344" transform="translate(270,259)"/>
<path d="M0 0 C0.33 0.66 0.66 1.32 1 2 C1.66 2 2.32 2 3 2 C3.33 3.65 3.66 5.3 4 7 C2.68 7 1.36 7 0 7 C0 4.69 0 2.38 0 0 Z " fill="#181818" transform="translate(197,257)"/>
<path d="M0 0 C0.66 0.33 1.32 0.66 2 1 C2 1.99 2 2.98 2 4 C2.66 4.66 3.32 5.32 4 6 C2.02 6.99 2.02 6.99 0 8 C0 7.34 0 6.68 0 6 C-0.66 6 -1.32 6 -2 6 C-2 5.34 -2 4.68 -2 4 C-1.34 4 -0.68 4 0 4 C0 3.34 0 2.68 0 2 C-0.66 1.67 -1.32 1.34 -2 1 C-1.34 0.67 -0.68 0.34 0 0 Z " fill="#606061" transform="translate(351,235)"/>
<path d="M0 0 C1.65 0 3.3 0 5 0 C4.67 1.32 4.34 2.64 4 4 C3.01 4 2.02 4 1 4 C0.67 4.66 0.34 5.32 0 6 C0 4.02 0 2.04 0 0 Z " fill="#1D1D1D" transform="translate(310,235)"/>
<path d="M0 0 C1.98 0.66 3.96 1.32 6 2 C6.33 3.65 6.66 5.3 7 7 C6.34 7 5.68 7 5 7 C3.7109375 5.46875 3.7109375 5.46875 2.375 3.5 C1.70597656 2.52546875 1.70597656 2.52546875 1.0234375 1.53125 C0.68570312 1.0259375 0.34796875 0.520625 0 0 Z " fill="#596C77" transform="translate(278,193)"/>
<path d="M0 0 C0.99 0 1.98 0 3 0 C3 1.65 3 3.3 3 5 C2.01 5.33 1.02 5.66 0 6 C-1.125 2.25 -1.125 2.25 0 0 Z " fill="#141415" transform="translate(311,239)"/>
<path d="M0 0 C1.32 0 2.64 0 4 0 C4.33 1.65 4.66 3.3 5 5 C3.02 5 1.04 5 -1 5 C-0.34 4.67 0.32 4.34 1 4 C0.67 2.68 0.34 1.36 0 0 Z " fill="#535052" transform="translate(280,224)"/>
<path d="M0 0 C1.98 0.495 1.98 0.495 4 1 C3.49396008 3.16874252 3.00016187 4.99967627 2 7 C0.4375 5.75 0.4375 5.75 -1 4 C-0.6875 1.8125 -0.6875 1.8125 0 0 Z " fill="#73C1BA" transform="translate(251,162)"/>
<path d="M0 0 C1.67542976 0.28604898 3.34385343 0.61781233 5 1 C5 1.66 5 2.32 5 3 C3.68 3 2.36 3 1 3 C0.67 3.66 0.34 4.32 0 5 C-0.66 5 -1.32 5 -2 5 C-1.125 1.125 -1.125 1.125 0 0 Z " fill="#19171A" transform="translate(271,235)"/>
<path d="M0 0 C3 1 3 1 4 3 C4.66 3.33 5.32 3.66 6 4 C5.34 5.32 4.68 6.64 4 8 C0 1.125 0 1.125 0 0 Z " fill="#5F5F5F" transform="translate(208,255)"/>
</svg>
